<mxfile host="Electron" modified="2024-06-21T04:13:42.229Z" agent="Mozilla/5.0 (Windows NT 10.0; Win64; x64) AppleWebKit/537.36 (KHTML, like Gecko) draw.io/24.5.1 Chrome/124.0.6367.207 Electron/30.0.6 Safari/537.36" etag="PeQpLOZNORtDJRaz-ywH" version="24.5.1" type="device">
  <diagram id="C5RBs43oDa-KdzZeNtuy" name="Page-1">
    <mxGraphModel dx="2200" dy="1330" grid="1" gridSize="10" guides="1" tooltips="1" connect="1" arrows="1" fold="1" page="1" pageScale="1" pageWidth="827" pageHeight="1169" math="0" shadow="0">
      <root>
        <mxCell id="WIyWlLk6GJQsqaUBKTNV-0" />
        <mxCell id="WIyWlLk6GJQsqaUBKTNV-1" parent="WIyWlLk6GJQsqaUBKTNV-0" />
        <mxCell id="2dFn9WLb6XTGdQKCP2bs-2" value="" style="edgeStyle=orthogonalEdgeStyle;rounded=0;orthogonalLoop=1;jettySize=auto;html=1;" edge="1" parent="WIyWlLk6GJQsqaUBKTNV-1" source="2dFn9WLb6XTGdQKCP2bs-0" target="2dFn9WLb6XTGdQKCP2bs-1">
          <mxGeometry relative="1" as="geometry" />
        </mxCell>
        <mxCell id="2dFn9WLb6XTGdQKCP2bs-0" value="&lt;font style=&quot;font-size: 30px;&quot;&gt;Start&lt;/font&gt;" style="ellipse;whiteSpace=wrap;html=1;" vertex="1" parent="WIyWlLk6GJQsqaUBKTNV-1">
          <mxGeometry x="330" y="130" width="120" height="80" as="geometry" />
        </mxCell>
        <mxCell id="2dFn9WLb6XTGdQKCP2bs-4" value="" style="edgeStyle=orthogonalEdgeStyle;rounded=0;orthogonalLoop=1;jettySize=auto;html=1;" edge="1" parent="WIyWlLk6GJQsqaUBKTNV-1" source="2dFn9WLb6XTGdQKCP2bs-1" target="2dFn9WLb6XTGdQKCP2bs-3">
          <mxGeometry relative="1" as="geometry" />
        </mxCell>
        <mxCell id="2dFn9WLb6XTGdQKCP2bs-5" value="&lt;font style=&quot;font-size: 30px;&quot;&gt;No&lt;/font&gt;" style="edgeLabel;html=1;align=center;verticalAlign=middle;resizable=0;points=[];" vertex="1" connectable="0" parent="2dFn9WLb6XTGdQKCP2bs-4">
          <mxGeometry x="-0.165" y="-6" relative="1" as="geometry">
            <mxPoint x="-1" as="offset" />
          </mxGeometry>
        </mxCell>
        <mxCell id="2dFn9WLb6XTGdQKCP2bs-7" value="" style="edgeStyle=orthogonalEdgeStyle;rounded=0;orthogonalLoop=1;jettySize=auto;html=1;entryX=0.5;entryY=0;entryDx=0;entryDy=0;" edge="1" parent="WIyWlLk6GJQsqaUBKTNV-1" source="2dFn9WLb6XTGdQKCP2bs-1" target="2dFn9WLb6XTGdQKCP2bs-9">
          <mxGeometry relative="1" as="geometry">
            <mxPoint x="390" y="580" as="targetPoint" />
          </mxGeometry>
        </mxCell>
        <mxCell id="2dFn9WLb6XTGdQKCP2bs-8" value="&lt;font style=&quot;font-size: 30px;&quot;&gt;Yes&lt;/font&gt;" style="edgeLabel;html=1;align=center;verticalAlign=middle;resizable=0;points=[];" vertex="1" connectable="0" parent="2dFn9WLb6XTGdQKCP2bs-7">
          <mxGeometry x="-0.1648" y="3" relative="1" as="geometry">
            <mxPoint as="offset" />
          </mxGeometry>
        </mxCell>
        <mxCell id="2dFn9WLb6XTGdQKCP2bs-1" value="&lt;span style=&quot;font-size: 30px;&quot;&gt;Do you select a row?&lt;/span&gt;" style="rhombus;whiteSpace=wrap;html=1;" vertex="1" parent="WIyWlLk6GJQsqaUBKTNV-1">
          <mxGeometry x="315" y="290" width="150" height="160" as="geometry" />
        </mxCell>
        <mxCell id="2dFn9WLb6XTGdQKCP2bs-3" value="&lt;font style=&quot;font-size: 30px;&quot;&gt;Show message &quot;Error&quot;, &quot;Por favor seleccione el producto en la tabla&quot;&lt;/font&gt;" style="shape=parallelogram;perimeter=parallelogramPerimeter;whiteSpace=wrap;html=1;fixedSize=1;" vertex="1" parent="WIyWlLk6GJQsqaUBKTNV-1">
          <mxGeometry x="700" y="302.5" width="345.12" height="135" as="geometry" />
        </mxCell>
        <mxCell id="2dFn9WLb6XTGdQKCP2bs-11" value="" style="edgeStyle=orthogonalEdgeStyle;rounded=0;orthogonalLoop=1;jettySize=auto;html=1;" edge="1" parent="WIyWlLk6GJQsqaUBKTNV-1" source="2dFn9WLb6XTGdQKCP2bs-9" target="2dFn9WLb6XTGdQKCP2bs-10">
          <mxGeometry relative="1" as="geometry" />
        </mxCell>
        <mxCell id="2dFn9WLb6XTGdQKCP2bs-9" value="&lt;font style=&quot;font-size: 30px;&quot;&gt;Show message &quot;Confirmar&quot;,&quot;¿Estás seguro de eliminar producto?&quot;&lt;/font&gt;" style="shape=parallelogram;perimeter=parallelogramPerimeter;whiteSpace=wrap;html=1;fixedSize=1;" vertex="1" parent="WIyWlLk6GJQsqaUBKTNV-1">
          <mxGeometry x="210" y="590" width="360" height="155" as="geometry" />
        </mxCell>
        <mxCell id="2dFn9WLb6XTGdQKCP2bs-13" value="" style="edgeStyle=orthogonalEdgeStyle;rounded=0;orthogonalLoop=1;jettySize=auto;html=1;" edge="1" parent="WIyWlLk6GJQsqaUBKTNV-1" source="2dFn9WLb6XTGdQKCP2bs-10" target="2dFn9WLb6XTGdQKCP2bs-12">
          <mxGeometry relative="1" as="geometry" />
        </mxCell>
        <mxCell id="2dFn9WLb6XTGdQKCP2bs-16" value="&lt;font style=&quot;font-size: 30px;&quot;&gt;yes&lt;/font&gt;" style="edgeLabel;html=1;align=center;verticalAlign=middle;resizable=0;points=[];" vertex="1" connectable="0" parent="2dFn9WLb6XTGdQKCP2bs-13">
          <mxGeometry x="-0.0917" y="4" relative="1" as="geometry">
            <mxPoint as="offset" />
          </mxGeometry>
        </mxCell>
        <mxCell id="2dFn9WLb6XTGdQKCP2bs-29" value="" style="edgeStyle=orthogonalEdgeStyle;rounded=0;orthogonalLoop=1;jettySize=auto;html=1;" edge="1" parent="WIyWlLk6GJQsqaUBKTNV-1" source="2dFn9WLb6XTGdQKCP2bs-10" target="2dFn9WLb6XTGdQKCP2bs-28">
          <mxGeometry relative="1" as="geometry" />
        </mxCell>
        <mxCell id="2dFn9WLb6XTGdQKCP2bs-30" value="&lt;font style=&quot;font-size: 30px;&quot;&gt;No&lt;/font&gt;" style="edgeLabel;html=1;align=center;verticalAlign=middle;resizable=0;points=[];" vertex="1" connectable="0" parent="2dFn9WLb6XTGdQKCP2bs-29">
          <mxGeometry x="-0.8688" y="-3" relative="1" as="geometry">
            <mxPoint as="offset" />
          </mxGeometry>
        </mxCell>
        <mxCell id="2dFn9WLb6XTGdQKCP2bs-10" value="&lt;font style=&quot;font-size: 30px;&quot;&gt;Confirm?&lt;/font&gt;" style="rhombus;whiteSpace=wrap;html=1;" vertex="1" parent="WIyWlLk6GJQsqaUBKTNV-1">
          <mxGeometry x="320" y="890" width="140" height="137.5" as="geometry" />
        </mxCell>
        <mxCell id="2dFn9WLb6XTGdQKCP2bs-18" value="" style="edgeStyle=orthogonalEdgeStyle;rounded=0;orthogonalLoop=1;jettySize=auto;html=1;" edge="1" parent="WIyWlLk6GJQsqaUBKTNV-1" source="2dFn9WLb6XTGdQKCP2bs-12" target="2dFn9WLb6XTGdQKCP2bs-17">
          <mxGeometry relative="1" as="geometry" />
        </mxCell>
        <mxCell id="2dFn9WLb6XTGdQKCP2bs-22" value="" style="edgeStyle=orthogonalEdgeStyle;rounded=0;orthogonalLoop=1;jettySize=auto;html=1;" edge="1" parent="WIyWlLk6GJQsqaUBKTNV-1" source="2dFn9WLb6XTGdQKCP2bs-12" target="2dFn9WLb6XTGdQKCP2bs-21">
          <mxGeometry relative="1" as="geometry" />
        </mxCell>
        <mxCell id="2dFn9WLb6XTGdQKCP2bs-12" value="&lt;font style=&quot;font-size: 30px;&quot;&gt;Run query&lt;/font&gt;" style="whiteSpace=wrap;html=1;" vertex="1" parent="WIyWlLk6GJQsqaUBKTNV-1">
          <mxGeometry x="310" y="1180" width="160" height="110" as="geometry" />
        </mxCell>
        <mxCell id="2dFn9WLb6XTGdQKCP2bs-20" value="" style="edgeStyle=orthogonalEdgeStyle;rounded=0;orthogonalLoop=1;jettySize=auto;html=1;" edge="1" parent="WIyWlLk6GJQsqaUBKTNV-1" source="2dFn9WLb6XTGdQKCP2bs-17" target="2dFn9WLb6XTGdQKCP2bs-19">
          <mxGeometry relative="1" as="geometry" />
        </mxCell>
        <mxCell id="2dFn9WLb6XTGdQKCP2bs-17" value="&lt;font style=&quot;font-size: 30px;&quot;&gt;Connect to data base&lt;/font&gt;" style="whiteSpace=wrap;html=1;" vertex="1" parent="WIyWlLk6GJQsqaUBKTNV-1">
          <mxGeometry x="590" y="1192.5" width="200" height="85" as="geometry" />
        </mxCell>
        <mxCell id="2dFn9WLb6XTGdQKCP2bs-19" value="&lt;font style=&quot;font-size: 30px;&quot;&gt;Store&lt;/font&gt;" style="strokeWidth=2;html=1;shape=mxgraph.flowchart.database;whiteSpace=wrap;" vertex="1" parent="WIyWlLk6GJQsqaUBKTNV-1">
          <mxGeometry x="945.12" y="1192.5" width="100" height="85" as="geometry" />
        </mxCell>
        <mxCell id="2dFn9WLb6XTGdQKCP2bs-24" value="" style="edgeStyle=orthogonalEdgeStyle;rounded=0;orthogonalLoop=1;jettySize=auto;html=1;" edge="1" parent="WIyWlLk6GJQsqaUBKTNV-1" source="2dFn9WLb6XTGdQKCP2bs-21" target="2dFn9WLb6XTGdQKCP2bs-23">
          <mxGeometry relative="1" as="geometry" />
        </mxCell>
        <mxCell id="2dFn9WLb6XTGdQKCP2bs-21" value="&lt;font style=&quot;font-size: 30px;&quot;&gt;Show message &quot;Mensaje&quot;,&quot;Producto eliminado&quot;&lt;/font&gt;" style="shape=parallelogram;perimeter=parallelogramPerimeter;whiteSpace=wrap;html=1;fixedSize=1;" vertex="1" parent="WIyWlLk6GJQsqaUBKTNV-1">
          <mxGeometry x="232.5" y="1430" width="315" height="105" as="geometry" />
        </mxCell>
        <mxCell id="2dFn9WLb6XTGdQKCP2bs-26" value="" style="edgeStyle=orthogonalEdgeStyle;rounded=0;orthogonalLoop=1;jettySize=auto;html=1;entryX=1;entryY=0.5;entryDx=0;entryDy=0;" edge="1" parent="WIyWlLk6GJQsqaUBKTNV-1" source="2dFn9WLb6XTGdQKCP2bs-23" target="2dFn9WLb6XTGdQKCP2bs-28">
          <mxGeometry relative="1" as="geometry">
            <mxPoint x="390" y="1816.25" as="targetPoint" />
            <Array as="points">
              <mxPoint x="390" y="2110" />
            </Array>
          </mxGeometry>
        </mxCell>
        <mxCell id="2dFn9WLb6XTGdQKCP2bs-23" value="&lt;font style=&quot;font-size: 30px;&quot;&gt;Show product list&lt;/font&gt;" style="whiteSpace=wrap;html=1;" vertex="1" parent="WIyWlLk6GJQsqaUBKTNV-1">
          <mxGeometry x="310" y="1754" width="160" height="92.5" as="geometry" />
        </mxCell>
        <mxCell id="2dFn9WLb6XTGdQKCP2bs-28" value="&lt;font style=&quot;font-size: 30px;&quot;&gt;End&lt;/font&gt;" style="ellipse;whiteSpace=wrap;html=1;" vertex="1" parent="WIyWlLk6GJQsqaUBKTNV-1">
          <mxGeometry x="130" y="2070" width="80" height="80" as="geometry" />
        </mxCell>
      </root>
    </mxGraphModel>
  </diagram>
</mxfile>
